<?xml version="1.0" encoding="UTF-8" ?>
<svg version="1.1" width="8" height="8" xmlns="http://www.w3.org/2000/svg">
<rect x="0" y="3" width="1" height="1" fill="#757161" />
<rect x="2" y="3" width="1" height="1" fill="#4E4A4E" />
<rect x="3" y="3" width="1" height="1" fill="#757161" />
<rect x="4" y="3" width="1" height="1" fill="#757161" />
<rect x="5" y="3" width="1" height="1" fill="#757161" />
<rect x="6" y="3" width="1" height="1" fill="#757161" />
<rect x="7" y="3" width="1" height="1" fill="#757161" />
<rect x="1" y="4" width="1" height="1" fill="#8595A1" />
<rect x="2" y="4" width="1" height="1" fill="#8595A1" />
<rect x="3" y="4" width="1" height="1" fill="#8595A1" />
<rect x="4" y="4" width="1" height="1" fill="#8595A1" />
<rect x="5" y="4" width="1" height="1" fill="#442434" />
<rect x="6" y="4" width="1" height="1" fill="#8595A1" />
<rect x="7" y="4" width="1" height="1" fill="#DEEED6" />
<rect x="0" y="5" width="1" height="1" fill="#8595A1" />
<rect x="1" y="5" width="1" height="1" fill="#DEEED6" />
<rect x="2" y="5" width="1" height="1" fill="#DEEED6" />
<rect x="3" y="5" width="1" height="1" fill="#DEEED6" />
<rect x="4" y="5" width="1" height="1" fill="#8595A1" />
<rect x="5" y="5" width="1" height="1" fill="#DEEED6" />
<rect x="6" y="5" width="1" height="1" fill="#DEEED6" />
</svg>