<?xml version="1.0" encoding="UTF-8" ?>
<svg version="1.1" width="48" height="16" xmlns="http://www.w3.org/2000/svg">
<rect x="3" y="0" width="1" height="1" fill="#854C30" />
<rect x="4" y="0" width="1" height="1" fill="#854C30" />
<rect x="11" y="0" width="1" height="1" fill="#854C30" />
<rect x="12" y="0" width="1" height="1" fill="#854C30" />
<rect x="19" y="0" width="1" height="1" fill="#854C30" />
<rect x="20" y="0" width="1" height="1" fill="#854C30" />
<rect x="27" y="0" width="1" height="1" fill="#AB5236" />
<rect x="28" y="0" width="1" height="1" fill="#AB5236" />
<rect x="35" y="0" width="1" height="1" fill="#AB5236" />
<rect x="36" y="0" width="1" height="1" fill="#AB5236" />
<rect x="43" y="0" width="1" height="1" fill="#AB5236" />
<rect x="44" y="0" width="1" height="1" fill="#AB5236" />
<rect x="3" y="1" width="1" height="1" fill="#854C30" />
<rect x="4" y="1" width="1" height="1" fill="#854C30" />
<rect x="11" y="1" width="1" height="1" fill="#854C30" />
<rect x="12" y="1" width="1" height="1" fill="#854C30" />
<rect x="19" y="1" width="1" height="1" fill="#854C30" />
<rect x="20" y="1" width="1" height="1" fill="#854C30" />
<rect x="27" y="1" width="1" height="1" fill="#AB5236" />
<rect x="28" y="1" width="1" height="1" fill="#AB5236" />
<rect x="35" y="1" width="1" height="1" fill="#AB5236" />
<rect x="36" y="1" width="1" height="1" fill="#AB5236" />
<rect x="43" y="1" width="1" height="1" fill="#AB5236" />
<rect x="44" y="1" width="1" height="1" fill="#AB5236" />
<rect x="3" y="2" width="1" height="1" fill="#442434" />
<rect x="4" y="2" width="1" height="1" fill="#442434" />
<rect x="11" y="2" width="1" height="1" fill="#442434" />
<rect x="12" y="2" width="1" height="1" fill="#854C30" />
<rect x="19" y="2" width="1" height="1" fill="#7E2553" />
<rect x="20" y="2" width="1" height="1" fill="#854C30" />
<rect x="27" y="2" width="1" height="1" fill="#7E2553" />
<rect x="28" y="2" width="1" height="1" fill="#AB5236" />
<rect x="35" y="2" width="1" height="1" fill="#7E2553" />
<rect x="36" y="2" width="1" height="1" fill="#7E2553" />
<rect x="43" y="2" width="1" height="1" fill="#7E2553" />
<rect x="44" y="2" width="1" height="1" fill="#7E2553" />
<rect x="1" y="3" width="1" height="1" fill="#6DC2CA" />
<rect x="2" y="3" width="1" height="1" fill="#DEEED6" />
<rect x="3" y="3" width="1" height="1" fill="#DEEED6" />
<rect x="4" y="3" width="1" height="1" fill="#DEEED6" />
<rect x="5" y="3" width="1" height="1" fill="#DEEED6" />
<rect x="6" y="3" width="1" height="1" fill="#6DC2CA" />
<rect x="10" y="3" width="1" height="1" fill="#6DC2CA" />
<rect x="11" y="3" width="1" height="1" fill="#DEEED6" />
<rect x="12" y="3" width="1" height="1" fill="#DEEED6" />
<rect x="13" y="3" width="1" height="1" fill="#DEEED6" />
<rect x="14" y="3" width="1" height="1" fill="#6DC2CA" />
<rect x="18" y="3" width="1" height="1" fill="#6DC2CA" />
<rect x="19" y="3" width="1" height="1" fill="#DEEED6" />
<rect x="20" y="3" width="1" height="1" fill="#DEEED6" />
<rect x="21" y="3" width="1" height="1" fill="#DEEED6" />
<rect x="26" y="3" width="1" height="1" fill="#C2C3C7" />
<rect x="27" y="3" width="1" height="1" fill="#FFF1E8" />
<rect x="28" y="3" width="1" height="1" fill="#FFF1E8" />
<rect x="29" y="3" width="1" height="1" fill="#FFF1E8" />
<rect x="34" y="3" width="1" height="1" fill="#C2C3C7" />
<rect x="35" y="3" width="1" height="1" fill="#FFF1E8" />
<rect x="36" y="3" width="1" height="1" fill="#FFF1E8" />
<rect x="37" y="3" width="1" height="1" fill="#FFF1E8" />
<rect x="38" y="3" width="1" height="1" fill="#C2C3C7" />
<rect x="41" y="3" width="1" height="1" fill="#C2C3C7" />
<rect x="42" y="3" width="1" height="1" fill="#FFF1E8" />
<rect x="43" y="3" width="1" height="1" fill="#FFF1E8" />
<rect x="44" y="3" width="1" height="1" fill="#FFF1E8" />
<rect x="45" y="3" width="1" height="1" fill="#FFF1E8" />
<rect x="46" y="3" width="1" height="1" fill="#C2C3C7" />
<rect x="1" y="4" width="1" height="1" fill="#DEEED6" />
<rect x="3" y="4" width="1" height="1" fill="#DEEED6" />
<rect x="4" y="4" width="1" height="1" fill="#DEEED6" />
<rect x="6" y="4" width="1" height="1" fill="#DEEED6" />
<rect x="10" y="4" width="1" height="1" fill="#6DC2CA" />
<rect x="11" y="4" width="1" height="1" fill="#DEEED6" />
<rect x="12" y="4" width="1" height="1" fill="#DEEED6" />
<rect x="14" y="4" width="1" height="1" fill="#DEEED6" />
<rect x="18" y="4" width="1" height="1" fill="#6DC2CA" />
<rect x="19" y="4" width="1" height="1" fill="#DEEED6" />
<rect x="20" y="4" width="1" height="1" fill="#DEEED6" />
<rect x="21" y="4" width="1" height="1" fill="#DEEED6" />
<rect x="26" y="4" width="1" height="1" fill="#C2C3C7" />
<rect x="27" y="4" width="1" height="1" fill="#FFF1E8" />
<rect x="28" y="4" width="1" height="1" fill="#FFF1E8" />
<rect x="29" y="4" width="1" height="1" fill="#FFF1E8" />
<rect x="34" y="4" width="1" height="1" fill="#C2C3C7" />
<rect x="35" y="4" width="1" height="1" fill="#FFF1E8" />
<rect x="36" y="4" width="1" height="1" fill="#FFF1E8" />
<rect x="38" y="4" width="1" height="1" fill="#FFF1E8" />
<rect x="41" y="4" width="1" height="1" fill="#FFF1E8" />
<rect x="43" y="4" width="1" height="1" fill="#FFF1E8" />
<rect x="44" y="4" width="1" height="1" fill="#FFF1E8" />
<rect x="46" y="4" width="1" height="1" fill="#FFF1E8" />
<rect x="1" y="5" width="1" height="1" fill="#442434" />
<rect x="3" y="5" width="1" height="1" fill="#DEEED6" />
<rect x="4" y="5" width="1" height="1" fill="#DEEED6" />
<rect x="6" y="5" width="1" height="1" fill="#442434" />
<rect x="10" y="5" width="1" height="1" fill="#442434" />
<rect x="11" y="5" width="1" height="1" fill="#DEEED6" />
<rect x="12" y="5" width="1" height="1" fill="#DEEED6" />
<rect x="14" y="5" width="1" height="1" fill="#442434" />
<rect x="18" y="5" width="1" height="1" fill="#442434" />
<rect x="19" y="5" width="1" height="1" fill="#DEEED6" />
<rect x="20" y="5" width="1" height="1" fill="#DEEED6" />
<rect x="21" y="5" width="1" height="1" fill="#854C30" />
<rect x="26" y="5" width="1" height="1" fill="#7E2553" />
<rect x="27" y="5" width="1" height="1" fill="#FFF1E8" />
<rect x="28" y="5" width="1" height="1" fill="#FFF1E8" />
<rect x="29" y="5" width="1" height="1" fill="#AB5236" />
<rect x="34" y="5" width="1" height="1" fill="#7E2553" />
<rect x="35" y="5" width="1" height="1" fill="#FFF1E8" />
<rect x="36" y="5" width="1" height="1" fill="#FFF1E8" />
<rect x="38" y="5" width="1" height="1" fill="#7E2553" />
<rect x="41" y="5" width="1" height="1" fill="#7E2553" />
<rect x="43" y="5" width="1" height="1" fill="#FFF1E8" />
<rect x="44" y="5" width="1" height="1" fill="#FFF1E8" />
<rect x="46" y="5" width="1" height="1" fill="#7E2553" />
<rect x="1" y="6" width="1" height="1" fill="#854C30" />
<rect x="3" y="6" width="1" height="1" fill="#DEEED6" />
<rect x="4" y="6" width="1" height="1" fill="#DEEED6" />
<rect x="6" y="6" width="1" height="1" fill="#854C30" />
<rect x="10" y="6" width="1" height="1" fill="#442434" />
<rect x="11" y="6" width="1" height="1" fill="#DEEED6" />
<rect x="12" y="6" width="1" height="1" fill="#DEEED6" />
<rect x="14" y="6" width="1" height="1" fill="#854C30" />
<rect x="18" y="6" width="1" height="1" fill="#442434" />
<rect x="19" y="6" width="1" height="1" fill="#DEEED6" />
<rect x="20" y="6" width="1" height="1" fill="#DEEED6" />
<rect x="21" y="6" width="1" height="1" fill="#854C30" />
<rect x="26" y="6" width="1" height="1" fill="#7E2553" />
<rect x="27" y="6" width="1" height="1" fill="#FFF1E8" />
<rect x="28" y="6" width="1" height="1" fill="#FFF1E8" />
<rect x="29" y="6" width="1" height="1" fill="#AB5236" />
<rect x="34" y="6" width="1" height="1" fill="#7E2553" />
<rect x="35" y="6" width="1" height="1" fill="#FFF1E8" />
<rect x="36" y="6" width="1" height="1" fill="#FFF1E8" />
<rect x="38" y="6" width="1" height="1" fill="#AB5236" />
<rect x="41" y="6" width="1" height="1" fill="#AB5236" />
<rect x="43" y="6" width="1" height="1" fill="#FFF1E8" />
<rect x="44" y="6" width="1" height="1" fill="#FFF1E8" />
<rect x="46" y="6" width="1" height="1" fill="#AB5236" />
<rect x="1" y="7" width="1" height="1" fill="#854C30" />
<rect x="3" y="7" width="1" height="1" fill="#597DCE" />
<rect x="4" y="7" width="1" height="1" fill="#597DCE" />
<rect x="6" y="7" width="1" height="1" fill="#854C30" />
<rect x="10" y="7" width="1" height="1" fill="#442434" />
<rect x="11" y="7" width="1" height="1" fill="#597DCE" />
<rect x="12" y="7" width="1" height="1" fill="#597DCE" />
<rect x="14" y="7" width="1" height="1" fill="#854C30" />
<rect x="18" y="7" width="1" height="1" fill="#442434" />
<rect x="19" y="7" width="1" height="1" fill="#597DCE" />
<rect x="20" y="7" width="1" height="1" fill="#597DCE" />
<rect x="21" y="7" width="1" height="1" fill="#854C30" />
<rect x="26" y="7" width="1" height="1" fill="#7E2553" />
<rect x="27" y="7" width="1" height="1" fill="#29ADFF" />
<rect x="28" y="7" width="1" height="1" fill="#29ADFF" />
<rect x="29" y="7" width="1" height="1" fill="#AB5236" />
<rect x="34" y="7" width="1" height="1" fill="#7E2553" />
<rect x="35" y="7" width="1" height="1" fill="#29ADFF" />
<rect x="36" y="7" width="1" height="1" fill="#29ADFF" />
<rect x="38" y="7" width="1" height="1" fill="#AB5236" />
<rect x="41" y="7" width="1" height="1" fill="#AB5236" />
<rect x="43" y="7" width="1" height="1" fill="#29ADFF" />
<rect x="44" y="7" width="1" height="1" fill="#29ADFF" />
<rect x="46" y="7" width="1" height="1" fill="#AB5236" />
<rect x="2" y="8" width="1" height="1" fill="#30346D" />
<rect x="3" y="8" width="1" height="1" fill="#597DCE" />
<rect x="4" y="8" width="1" height="1" fill="#597DCE" />
<rect x="5" y="8" width="1" height="1" fill="#30346D" />
<rect x="11" y="8" width="1" height="1" fill="#30346D" />
<rect x="12" y="8" width="1" height="1" fill="#597DCE" />
<rect x="19" y="8" width="1" height="1" fill="#30346D" />
<rect x="20" y="8" width="1" height="1" fill="#597DCE" />
<rect x="27" y="8" width="1" height="1" fill="#83769C" />
<rect x="28" y="8" width="1" height="1" fill="#29ADFF" />
<rect x="35" y="8" width="1" height="1" fill="#83769C" />
<rect x="36" y="8" width="1" height="1" fill="#29ADFF" />
<rect x="42" y="8" width="1" height="1" fill="#83769C" />
<rect x="43" y="8" width="1" height="1" fill="#29ADFF" />
<rect x="44" y="8" width="1" height="1" fill="#29ADFF" />
<rect x="45" y="8" width="1" height="1" fill="#83769C" />
<rect x="2" y="9" width="1" height="1" fill="#597DCE" />
<rect x="5" y="9" width="1" height="1" fill="#597DCE" />
<rect x="11" y="9" width="1" height="1" fill="#30346D" />
<rect x="12" y="9" width="1" height="1" fill="#597DCE" />
<rect x="19" y="9" width="1" height="1" fill="#30346D" />
<rect x="20" y="9" width="1" height="1" fill="#597DCE" />
<rect x="27" y="9" width="1" height="1" fill="#83769C" />
<rect x="28" y="9" width="1" height="1" fill="#29ADFF" />
<rect x="35" y="9" width="1" height="1" fill="#83769C" />
<rect x="36" y="9" width="1" height="1" fill="#29ADFF" />
<rect x="42" y="9" width="1" height="1" fill="#29ADFF" />
<rect x="45" y="9" width="1" height="1" fill="#29ADFF" />
<rect x="2" y="10" width="1" height="1" fill="#597DCE" />
<rect x="5" y="10" width="1" height="1" fill="#597DCE" />
<rect x="11" y="10" width="1" height="1" fill="#30346D" />
<rect x="12" y="10" width="1" height="1" fill="#597DCE" />
<rect x="19" y="10" width="1" height="1" fill="#30346D" />
<rect x="20" y="10" width="1" height="1" fill="#597DCE" />
<rect x="27" y="10" width="1" height="1" fill="#83769C" />
<rect x="28" y="10" width="1" height="1" fill="#29ADFF" />
<rect x="35" y="10" width="1" height="1" fill="#83769C" />
<rect x="36" y="10" width="1" height="1" fill="#29ADFF" />
<rect x="42" y="10" width="1" height="1" fill="#29ADFF" />
<rect x="45" y="10" width="1" height="1" fill="#29ADFF" />
<rect x="2" y="11" width="1" height="1" fill="#597DCE" />
<rect x="5" y="11" width="1" height="1" fill="#597DCE" />
<rect x="11" y="11" width="1" height="1" fill="#30346D" />
<rect x="12" y="11" width="1" height="1" fill="#597DCE" />
<rect x="19" y="11" width="1" height="1" fill="#30346D" />
<rect x="20" y="11" width="1" height="1" fill="#597DCE" />
<rect x="27" y="11" width="1" height="1" fill="#83769C" />
<rect x="28" y="11" width="1" height="1" fill="#29ADFF" />
<rect x="35" y="11" width="1" height="1" fill="#83769C" />
<rect x="36" y="11" width="1" height="1" fill="#29ADFF" />
<rect x="42" y="11" width="1" height="1" fill="#29ADFF" />
<rect x="45" y="11" width="1" height="1" fill="#29ADFF" />
<rect x="2" y="12" width="1" height="1" fill="#597DCE" />
<rect x="5" y="12" width="1" height="1" fill="#597DCE" />
<rect x="11" y="12" width="1" height="1" fill="#30346D" />
<rect x="12" y="12" width="1" height="1" fill="#597DCE" />
<rect x="19" y="12" width="1" height="1" fill="#30346D" />
<rect x="20" y="12" width="1" height="1" fill="#597DCE" />
<rect x="27" y="12" width="1" height="1" fill="#83769C" />
<rect x="28" y="12" width="1" height="1" fill="#29ADFF" />
<rect x="35" y="12" width="1" height="1" fill="#83769C" />
<rect x="36" y="12" width="1" height="1" fill="#29ADFF" />
<rect x="42" y="12" width="1" height="1" fill="#29ADFF" />
<rect x="45" y="12" width="1" height="1" fill="#29ADFF" />
<rect x="2" y="13" width="1" height="1" fill="#30346D" />
<rect x="5" y="13" width="1" height="1" fill="#30346D" />
<rect x="11" y="13" width="1" height="1" fill="#30346D" />
<rect x="12" y="13" width="1" height="1" fill="#30346D" />
<rect x="19" y="13" width="1" height="1" fill="#30346D" />
<rect x="20" y="13" width="1" height="1" fill="#597DCE" />
<rect x="27" y="13" width="1" height="1" fill="#83769C" />
<rect x="28" y="13" width="1" height="1" fill="#29ADFF" />
<rect x="35" y="13" width="1" height="1" fill="#83769C" />
<rect x="36" y="13" width="1" height="1" fill="#83769C" />
<rect x="42" y="13" width="1" height="1" fill="#83769C" />
<rect x="45" y="13" width="1" height="1" fill="#83769C" />
<rect x="2" y="14" width="1" height="1" fill="#30346D" />
<rect x="5" y="14" width="1" height="1" fill="#30346D" />
<rect x="11" y="14" width="1" height="1" fill="#30346D" />
<rect x="12" y="14" width="1" height="1" fill="#30346D" />
<rect x="19" y="14" width="1" height="1" fill="#30346D" />
<rect x="20" y="14" width="1" height="1" fill="#597DCE" />
<rect x="27" y="14" width="1" height="1" fill="#83769C" />
<rect x="28" y="14" width="1" height="1" fill="#29ADFF" />
<rect x="35" y="14" width="1" height="1" fill="#83769C" />
<rect x="36" y="14" width="1" height="1" fill="#83769C" />
<rect x="42" y="14" width="1" height="1" fill="#83769C" />
<rect x="45" y="14" width="1" height="1" fill="#83769C" />
<rect x="2" y="15" width="1" height="1" fill="#DAD45E" />
<rect x="5" y="15" width="1" height="1" fill="#DAD45E" />
<rect x="11" y="15" width="1" height="1" fill="#DAD45E" />
<rect x="12" y="15" width="1" height="1" fill="#DAD45E" />
<rect x="19" y="15" width="1" height="1" fill="#DAD45E" />
<rect x="20" y="15" width="1" height="1" fill="#DAD45E" />
<rect x="27" y="15" width="1" height="1" fill="#FFEC27" />
<rect x="28" y="15" width="1" height="1" fill="#FFEC27" />
<rect x="35" y="15" width="1" height="1" fill="#FFEC27" />
<rect x="36" y="15" width="1" height="1" fill="#FFEC27" />
<rect x="42" y="15" width="1" height="1" fill="#FFEC27" />
<rect x="45" y="15" width="1" height="1" fill="#FFEC27" />
</svg>