<?xml version="1.0" encoding="UTF-8" ?>
<svg version="1.1" width="16" height="8" xmlns="http://www.w3.org/2000/svg">
<rect x="6" y="0" width="1" height="1" fill="#DEEED6" />
<rect x="7" y="0" width="1" height="1" fill="#DEEED6" />
<rect x="14" y="0" width="1" height="1" fill="#FFF1E8" />
<rect x="15" y="0" width="1" height="1" fill="#FFF1E8" />
<rect x="1" y="1" width="1" height="1" fill="#D04648" />
<rect x="2" y="1" width="1" height="1" fill="#D27D2C" />
<rect x="3" y="1" width="1" height="1" fill="#D04648" />
<rect x="4" y="1" width="1" height="1" fill="#D27D2C" />
<rect x="9" y="1" width="1" height="1" fill="#FF004D" />
<rect x="10" y="1" width="1" height="1" fill="#FFA300" />
<rect x="11" y="1" width="1" height="1" fill="#FF004D" />
<rect x="12" y="1" width="1" height="1" fill="#FFA300" />
<rect x="1" y="2" width="1" height="1" fill="#D04648" />
<rect x="2" y="2" width="1" height="1" fill="#D27D2C" />
<rect x="3" y="2" width="1" height="1" fill="#D04648" />
<rect x="4" y="2" width="1" height="1" fill="#D27D2C" />
<rect x="6" y="2" width="1" height="1" fill="#442434" />
<rect x="9" y="2" width="1" height="1" fill="#FF004D" />
<rect x="10" y="2" width="1" height="1" fill="#FFA300" />
<rect x="11" y="2" width="1" height="1" fill="#FF004D" />
<rect x="12" y="2" width="1" height="1" fill="#FFA300" />
<rect x="14" y="2" width="1" height="1" fill="#7E2553" />
<rect x="1" y="3" width="1" height="1" fill="#D04648" />
<rect x="2" y="3" width="1" height="1" fill="#D04648" />
<rect x="3" y="3" width="1" height="1" fill="#D27D2C" />
<rect x="4" y="3" width="1" height="1" fill="#D27D2C" />
<rect x="6" y="3" width="1" height="1" fill="#442434" />
<rect x="7" y="3" width="1" height="1" fill="#442434" />
<rect x="9" y="3" width="1" height="1" fill="#FF004D" />
<rect x="10" y="3" width="1" height="1" fill="#FF004D" />
<rect x="11" y="3" width="1" height="1" fill="#FFA300" />
<rect x="12" y="3" width="1" height="1" fill="#FFA300" />
<rect x="14" y="3" width="1" height="1" fill="#7E2553" />
<rect x="15" y="3" width="1" height="1" fill="#7E2553" />
<rect x="1" y="4" width="1" height="1" fill="#30346D" />
<rect x="2" y="4" width="1" height="1" fill="#D04648" />
<rect x="3" y="4" width="1" height="1" fill="#D27D2C" />
<rect x="4" y="4" width="1" height="1" fill="#30346D" />
<rect x="6" y="4" width="1" height="1" fill="#442434" />
<rect x="7" y="4" width="1" height="1" fill="#442434" />
<rect x="9" y="4" width="1" height="1" fill="#1D2B53" />
<rect x="10" y="4" width="1" height="1" fill="#FF004D" />
<rect x="11" y="4" width="1" height="1" fill="#FFA300" />
<rect x="12" y="4" width="1" height="1" fill="#1D2B53" />
<rect x="14" y="4" width="1" height="1" fill="#7E2553" />
<rect x="15" y="4" width="1" height="1" fill="#7E2553" />
<rect x="1" y="5" width="1" height="1" fill="#D04648" />
<rect x="2" y="5" width="1" height="1" fill="#D04648" />
<rect x="3" y="5" width="1" height="1" fill="#D27D2C" />
<rect x="4" y="5" width="1" height="1" fill="#D27D2C" />
<rect x="6" y="5" width="1" height="1" fill="#442434" />
<rect x="7" y="5" width="1" height="1" fill="#442434" />
<rect x="9" y="5" width="1" height="1" fill="#FF004D" />
<rect x="10" y="5" width="1" height="1" fill="#FF004D" />
<rect x="11" y="5" width="1" height="1" fill="#FFA300" />
<rect x="12" y="5" width="1" height="1" fill="#FFA300" />
<rect x="14" y="5" width="1" height="1" fill="#7E2553" />
<rect x="15" y="5" width="1" height="1" fill="#7E2553" />
<rect x="6" y="6" width="1" height="1" fill="#442434" />
<rect x="7" y="6" width="1" height="1" fill="#442434" />
<rect x="14" y="6" width="1" height="1" fill="#7E2553" />
<rect x="15" y="6" width="1" height="1" fill="#7E2553" />
<rect x="0" y="7" width="1" height="1" fill="#DAD45E" />
<rect x="1" y="7" width="1" height="1" fill="#DAD45E" />
<rect x="2" y="7" width="1" height="1" fill="#DAD45E" />
<rect x="8" y="7" width="1" height="1" fill="#FFEC27" />
<rect x="9" y="7" width="1" height="1" fill="#FFEC27" />
<rect x="10" y="7" width="1" height="1" fill="#FFEC27" />
<rect x="11" y="7" width="1" height="1" fill="#FFEC27" />
</svg>