<?xml version="1.0" encoding="UTF-8" ?>
<svg version="1.1" width="64" height="18" xmlns="http://www.w3.org/2000/svg">
<rect x="3" y="0" width="1" height="1" fill="#4E4A4E" />
<rect x="4" y="0" width="1" height="1" fill="#4E4A4E" />
<rect x="5" y="0" width="1" height="1" fill="#442434" />
<rect x="6" y="0" width="1" height="1" fill="#442434" />
<rect x="8" y="0" width="1" height="1" fill="#442434" />
<rect x="9" y="0" width="1" height="1" fill="#442434" />
<rect x="10" y="0" width="1" height="1" fill="#4E4A4E" />
<rect x="11" y="0" width="1" height="1" fill="#4E4A4E" />
<rect x="17" y="0" width="1" height="1" fill="#442434" />
<rect x="18" y="0" width="1" height="1" fill="#442434" />
<rect x="19" y="0" width="1" height="1" fill="#4E4A4E" />
<rect x="20" y="0" width="1" height="1" fill="#4E4A4E" />
<rect x="26" y="0" width="1" height="1" fill="#442434" />
<rect x="27" y="0" width="1" height="1" fill="#442434" />
<rect x="28" y="0" width="1" height="1" fill="#4E4A4E" />
<rect x="29" y="0" width="1" height="1" fill="#4E4A4E" />
<rect x="35" y="0" width="1" height="1" fill="#5F574F" />
<rect x="36" y="0" width="1" height="1" fill="#5F574F" />
<rect x="37" y="0" width="1" height="1" fill="#7E2553" />
<rect x="38" y="0" width="1" height="1" fill="#7E2553" />
<rect x="40" y="0" width="1" height="1" fill="#7E2553" />
<rect x="41" y="0" width="1" height="1" fill="#7E2553" />
<rect x="42" y="0" width="1" height="1" fill="#5F574F" />
<rect x="43" y="0" width="1" height="1" fill="#5F574F" />
<rect x="49" y="0" width="1" height="1" fill="#7E2553" />
<rect x="50" y="0" width="1" height="1" fill="#7E2553" />
<rect x="51" y="0" width="1" height="1" fill="#5F574F" />
<rect x="52" y="0" width="1" height="1" fill="#5F574F" />
<rect x="58" y="0" width="1" height="1" fill="#7E2553" />
<rect x="59" y="0" width="1" height="1" fill="#7E2553" />
<rect x="60" y="0" width="1" height="1" fill="#5F574F" />
<rect x="61" y="0" width="1" height="1" fill="#5F574F" />
<rect x="2" y="1" width="1" height="1" fill="#442434" />
<rect x="3" y="1" width="1" height="1" fill="#4E4A4E" />
<rect x="4" y="1" width="1" height="1" fill="#4E4A4E" />
<rect x="5" y="1" width="1" height="1" fill="#30346D" />
<rect x="6" y="1" width="1" height="1" fill="#442434" />
<rect x="8" y="1" width="1" height="1" fill="#442434" />
<rect x="9" y="1" width="1" height="1" fill="#30346D" />
<rect x="10" y="1" width="1" height="1" fill="#DEEED6" />
<rect x="11" y="1" width="1" height="1" fill="#DEEED6" />
<rect x="12" y="1" width="1" height="1" fill="#442434" />
<rect x="17" y="1" width="1" height="1" fill="#442434" />
<rect x="18" y="1" width="1" height="1" fill="#30346D" />
<rect x="19" y="1" width="1" height="1" fill="#DEEED6" />
<rect x="20" y="1" width="1" height="1" fill="#DEEED6" />
<rect x="21" y="1" width="1" height="1" fill="#442434" />
<rect x="26" y="1" width="1" height="1" fill="#442434" />
<rect x="27" y="1" width="1" height="1" fill="#30346D" />
<rect x="28" y="1" width="1" height="1" fill="#DEEED6" />
<rect x="29" y="1" width="1" height="1" fill="#DEEED6" />
<rect x="30" y="1" width="1" height="1" fill="#442434" />
<rect x="34" y="1" width="1" height="1" fill="#7E2553" />
<rect x="35" y="1" width="1" height="1" fill="#5F574F" />
<rect x="36" y="1" width="1" height="1" fill="#5F574F" />
<rect x="37" y="1" width="1" height="1" fill="#1D2B53" />
<rect x="38" y="1" width="1" height="1" fill="#7E2553" />
<rect x="40" y="1" width="1" height="1" fill="#7E2553" />
<rect x="41" y="1" width="1" height="1" fill="#1D2B53" />
<rect x="42" y="1" width="1" height="1" fill="#FFF1E8" />
<rect x="43" y="1" width="1" height="1" fill="#FFF1E8" />
<rect x="44" y="1" width="1" height="1" fill="#7E2553" />
<rect x="49" y="1" width="1" height="1" fill="#7E2553" />
<rect x="50" y="1" width="1" height="1" fill="#1D2B53" />
<rect x="51" y="1" width="1" height="1" fill="#FFF1E8" />
<rect x="52" y="1" width="1" height="1" fill="#FFF1E8" />
<rect x="53" y="1" width="1" height="1" fill="#7E2553" />
<rect x="58" y="1" width="1" height="1" fill="#7E2553" />
<rect x="59" y="1" width="1" height="1" fill="#1D2B53" />
<rect x="60" y="1" width="1" height="1" fill="#FFF1E8" />
<rect x="61" y="1" width="1" height="1" fill="#FFF1E8" />
<rect x="62" y="1" width="1" height="1" fill="#7E2553" />
<rect x="2" y="2" width="1" height="1" fill="#D27D2C" />
<rect x="3" y="2" width="1" height="1" fill="#442434" />
<rect x="4" y="2" width="1" height="1" fill="#4E4A4E" />
<rect x="5" y="2" width="1" height="1" fill="#D04648" />
<rect x="9" y="2" width="1" height="1" fill="#D04648" />
<rect x="10" y="2" width="1" height="1" fill="#4E4A4E" />
<rect x="11" y="2" width="1" height="1" fill="#4E4A4E" />
<rect x="12" y="2" width="1" height="1" fill="#D27D2C" />
<rect x="18" y="2" width="1" height="1" fill="#D04648" />
<rect x="19" y="2" width="1" height="1" fill="#4E4A4E" />
<rect x="20" y="2" width="1" height="1" fill="#4E4A4E" />
<rect x="21" y="2" width="1" height="1" fill="#D27D2C" />
<rect x="27" y="2" width="1" height="1" fill="#D04648" />
<rect x="28" y="2" width="1" height="1" fill="#4E4A4E" />
<rect x="29" y="2" width="1" height="1" fill="#4E4A4E" />
<rect x="30" y="2" width="1" height="1" fill="#D27D2C" />
<rect x="34" y="2" width="1" height="1" fill="#FFA300" />
<rect x="35" y="2" width="1" height="1" fill="#7E2553" />
<rect x="36" y="2" width="1" height="1" fill="#5F574F" />
<rect x="37" y="2" width="1" height="1" fill="#FF004D" />
<rect x="41" y="2" width="1" height="1" fill="#FF004D" />
<rect x="42" y="2" width="1" height="1" fill="#5F574F" />
<rect x="43" y="2" width="1" height="1" fill="#5F574F" />
<rect x="44" y="2" width="1" height="1" fill="#FFA300" />
<rect x="50" y="2" width="1" height="1" fill="#FF004D" />
<rect x="51" y="2" width="1" height="1" fill="#5F574F" />
<rect x="52" y="2" width="1" height="1" fill="#5F574F" />
<rect x="53" y="2" width="1" height="1" fill="#FFA300" />
<rect x="59" y="2" width="1" height="1" fill="#FF004D" />
<rect x="60" y="2" width="1" height="1" fill="#5F574F" />
<rect x="61" y="2" width="1" height="1" fill="#5F574F" />
<rect x="62" y="2" width="1" height="1" fill="#FFA300" />
<rect x="1" y="3" width="1" height="1" fill="#4E4A4E" />
<rect x="2" y="3" width="1" height="1" fill="#757161" />
<rect x="3" y="3" width="1" height="1" fill="#442434" />
<rect x="4" y="3" width="1" height="1" fill="#442434" />
<rect x="5" y="3" width="1" height="1" fill="#757161" />
<rect x="6" y="3" width="1" height="1" fill="#8595A1" />
<rect x="9" y="3" width="1" height="1" fill="#D04648" />
<rect x="10" y="3" width="1" height="1" fill="#8595A1" />
<rect x="11" y="3" width="1" height="1" fill="#757161" />
<rect x="12" y="3" width="1" height="1" fill="#D27D2C" />
<rect x="13" y="3" width="1" height="1" fill="#4E4A4E" />
<rect x="17" y="3" width="1" height="1" fill="#8595A1" />
<rect x="18" y="3" width="1" height="1" fill="#D04648" />
<rect x="19" y="3" width="1" height="1" fill="#8595A1" />
<rect x="20" y="3" width="1" height="1" fill="#757161" />
<rect x="21" y="3" width="1" height="1" fill="#D27D2C" />
<rect x="22" y="3" width="1" height="1" fill="#4E4A4E" />
<rect x="26" y="3" width="1" height="1" fill="#8595A1" />
<rect x="27" y="3" width="1" height="1" fill="#D04648" />
<rect x="28" y="3" width="1" height="1" fill="#8595A1" />
<rect x="29" y="3" width="1" height="1" fill="#757161" />
<rect x="30" y="3" width="1" height="1" fill="#D27D2C" />
<rect x="33" y="3" width="1" height="1" fill="#5F574F" />
<rect x="34" y="3" width="1" height="1" fill="#83769C" />
<rect x="35" y="3" width="1" height="1" fill="#7E2553" />
<rect x="36" y="3" width="1" height="1" fill="#7E2553" />
<rect x="37" y="3" width="1" height="1" fill="#C2C3C7" />
<rect x="38" y="3" width="1" height="1" fill="#83769C" />
<rect x="41" y="3" width="1" height="1" fill="#FF004D" />
<rect x="42" y="3" width="1" height="1" fill="#C2C3C7" />
<rect x="43" y="3" width="1" height="1" fill="#83769C" />
<rect x="44" y="3" width="1" height="1" fill="#FFA300" />
<rect x="45" y="3" width="1" height="1" fill="#5F574F" />
<rect x="49" y="3" width="1" height="1" fill="#C2C3C7" />
<rect x="50" y="3" width="1" height="1" fill="#FF004D" />
<rect x="51" y="3" width="1" height="1" fill="#C2C3C7" />
<rect x="52" y="3" width="1" height="1" fill="#83769C" />
<rect x="53" y="3" width="1" height="1" fill="#FFA300" />
<rect x="54" y="3" width="1" height="1" fill="#5F574F" />
<rect x="58" y="3" width="1" height="1" fill="#C2C3C7" />
<rect x="59" y="3" width="1" height="1" fill="#FF004D" />
<rect x="60" y="3" width="1" height="1" fill="#C2C3C7" />
<rect x="61" y="3" width="1" height="1" fill="#83769C" />
<rect x="62" y="3" width="1" height="1" fill="#FFA300" />
<rect x="1" y="4" width="1" height="1" fill="#757161" />
<rect x="2" y="4" width="1" height="1" fill="#D27D2C" />
<rect x="3" y="4" width="1" height="1" fill="#442434" />
<rect x="4" y="4" width="1" height="1" fill="#442434" />
<rect x="5" y="4" width="1" height="1" fill="#D04648" />
<rect x="6" y="4" width="1" height="1" fill="#757161" />
<rect x="9" y="4" width="1" height="1" fill="#D04648" />
<rect x="10" y="4" width="1" height="1" fill="#D04648" />
<rect x="11" y="4" width="1" height="1" fill="#D27D2C" />
<rect x="12" y="4" width="1" height="1" fill="#D27D2C" />
<rect x="13" y="4" width="1" height="1" fill="#757161" />
<rect x="17" y="4" width="1" height="1" fill="#757161" />
<rect x="18" y="4" width="1" height="1" fill="#D04648" />
<rect x="19" y="4" width="1" height="1" fill="#D04648" />
<rect x="20" y="4" width="1" height="1" fill="#D27D2C" />
<rect x="21" y="4" width="1" height="1" fill="#D27D2C" />
<rect x="22" y="4" width="1" height="1" fill="#757161" />
<rect x="26" y="4" width="1" height="1" fill="#757161" />
<rect x="27" y="4" width="1" height="1" fill="#D04648" />
<rect x="28" y="4" width="1" height="1" fill="#D04648" />
<rect x="29" y="4" width="1" height="1" fill="#D27D2C" />
<rect x="30" y="4" width="1" height="1" fill="#D27D2C" />
<rect x="33" y="4" width="1" height="1" fill="#83769C" />
<rect x="34" y="4" width="1" height="1" fill="#FFA300" />
<rect x="35" y="4" width="1" height="1" fill="#7E2553" />
<rect x="36" y="4" width="1" height="1" fill="#7E2553" />
<rect x="37" y="4" width="1" height="1" fill="#FF004D" />
<rect x="38" y="4" width="1" height="1" fill="#83769C" />
<rect x="41" y="4" width="1" height="1" fill="#FF004D" />
<rect x="42" y="4" width="1" height="1" fill="#FF004D" />
<rect x="43" y="4" width="1" height="1" fill="#FFA300" />
<rect x="44" y="4" width="1" height="1" fill="#FFA300" />
<rect x="45" y="4" width="1" height="1" fill="#83769C" />
<rect x="49" y="4" width="1" height="1" fill="#83769C" />
<rect x="50" y="4" width="1" height="1" fill="#FF004D" />
<rect x="51" y="4" width="1" height="1" fill="#FF004D" />
<rect x="52" y="4" width="1" height="1" fill="#FFA300" />
<rect x="53" y="4" width="1" height="1" fill="#FFA300" />
<rect x="54" y="4" width="1" height="1" fill="#83769C" />
<rect x="58" y="4" width="1" height="1" fill="#83769C" />
<rect x="59" y="4" width="1" height="1" fill="#FF004D" />
<rect x="60" y="4" width="1" height="1" fill="#FF004D" />
<rect x="61" y="4" width="1" height="1" fill="#FFA300" />
<rect x="62" y="4" width="1" height="1" fill="#FFA300" />
<rect x="1" y="5" width="1" height="1" fill="#4E4A4E" />
<rect x="2" y="5" width="1" height="1" fill="#30346D" />
<rect x="3" y="5" width="1" height="1" fill="#30346D" />
<rect x="4" y="5" width="1" height="1" fill="#30346D" />
<rect x="5" y="5" width="1" height="1" fill="#30346D" />
<rect x="6" y="5" width="1" height="1" fill="#4E4A4E" />
<rect x="9" y="5" width="1" height="1" fill="#30346D" />
<rect x="10" y="5" width="1" height="1" fill="#D04648" />
<rect x="11" y="5" width="1" height="1" fill="#D27D2C" />
<rect x="12" y="5" width="1" height="1" fill="#30346D" />
<rect x="13" y="5" width="1" height="1" fill="#4E4A4E" />
<rect x="17" y="5" width="1" height="1" fill="#4E4A4E" />
<rect x="18" y="5" width="1" height="1" fill="#30346D" />
<rect x="19" y="5" width="1" height="1" fill="#D04648" />
<rect x="20" y="5" width="1" height="1" fill="#D27D2C" />
<rect x="21" y="5" width="1" height="1" fill="#30346D" />
<rect x="22" y="5" width="1" height="1" fill="#4E4A4E" />
<rect x="26" y="5" width="1" height="1" fill="#4E4A4E" />
<rect x="27" y="5" width="1" height="1" fill="#30346D" />
<rect x="28" y="5" width="1" height="1" fill="#D04648" />
<rect x="29" y="5" width="1" height="1" fill="#D27D2C" />
<rect x="30" y="5" width="1" height="1" fill="#30346D" />
<rect x="33" y="5" width="1" height="1" fill="#5F574F" />
<rect x="34" y="5" width="1" height="1" fill="#1D2B53" />
<rect x="35" y="5" width="1" height="1" fill="#1D2B53" />
<rect x="36" y="5" width="1" height="1" fill="#1D2B53" />
<rect x="37" y="5" width="1" height="1" fill="#1D2B53" />
<rect x="38" y="5" width="1" height="1" fill="#5F574F" />
<rect x="41" y="5" width="1" height="1" fill="#1D2B53" />
<rect x="42" y="5" width="1" height="1" fill="#FF004D" />
<rect x="43" y="5" width="1" height="1" fill="#FFA300" />
<rect x="44" y="5" width="1" height="1" fill="#1D2B53" />
<rect x="45" y="5" width="1" height="1" fill="#5F574F" />
<rect x="49" y="5" width="1" height="1" fill="#5F574F" />
<rect x="50" y="5" width="1" height="1" fill="#1D2B53" />
<rect x="51" y="5" width="1" height="1" fill="#FF004D" />
<rect x="52" y="5" width="1" height="1" fill="#FFA300" />
<rect x="53" y="5" width="1" height="1" fill="#1D2B53" />
<rect x="54" y="5" width="1" height="1" fill="#5F574F" />
<rect x="58" y="5" width="1" height="1" fill="#5F574F" />
<rect x="59" y="5" width="1" height="1" fill="#1D2B53" />
<rect x="60" y="5" width="1" height="1" fill="#FF004D" />
<rect x="61" y="5" width="1" height="1" fill="#FFA300" />
<rect x="62" y="5" width="1" height="1" fill="#1D2B53" />
<rect x="1" y="6" width="1" height="1" fill="#757161" />
<rect x="2" y="6" width="1" height="1" fill="#D27D2C" />
<rect x="3" y="6" width="1" height="1" fill="#442434" />
<rect x="4" y="6" width="1" height="1" fill="#442434" />
<rect x="5" y="6" width="1" height="1" fill="#D04648" />
<rect x="6" y="6" width="1" height="1" fill="#757161" />
<rect x="9" y="6" width="1" height="1" fill="#D04648" />
<rect x="10" y="6" width="1" height="1" fill="#D04648" />
<rect x="11" y="6" width="1" height="1" fill="#D27D2C" />
<rect x="12" y="6" width="1" height="1" fill="#D27D2C" />
<rect x="13" y="6" width="1" height="1" fill="#757161" />
<rect x="17" y="6" width="1" height="1" fill="#757161" />
<rect x="18" y="6" width="1" height="1" fill="#D04648" />
<rect x="19" y="6" width="1" height="1" fill="#D04648" />
<rect x="20" y="6" width="1" height="1" fill="#D27D2C" />
<rect x="21" y="6" width="1" height="1" fill="#D27D2C" />
<rect x="22" y="6" width="1" height="1" fill="#757161" />
<rect x="26" y="6" width="1" height="1" fill="#757161" />
<rect x="27" y="6" width="1" height="1" fill="#D04648" />
<rect x="28" y="6" width="1" height="1" fill="#D04648" />
<rect x="29" y="6" width="1" height="1" fill="#D27D2C" />
<rect x="30" y="6" width="1" height="1" fill="#D27D2C" />
<rect x="33" y="6" width="1" height="1" fill="#83769C" />
<rect x="34" y="6" width="1" height="1" fill="#FFA300" />
<rect x="35" y="6" width="1" height="1" fill="#7E2553" />
<rect x="36" y="6" width="1" height="1" fill="#7E2553" />
<rect x="37" y="6" width="1" height="1" fill="#FF004D" />
<rect x="38" y="6" width="1" height="1" fill="#83769C" />
<rect x="41" y="6" width="1" height="1" fill="#FF004D" />
<rect x="42" y="6" width="1" height="1" fill="#FF004D" />
<rect x="43" y="6" width="1" height="1" fill="#FFA300" />
<rect x="44" y="6" width="1" height="1" fill="#FFA300" />
<rect x="45" y="6" width="1" height="1" fill="#83769C" />
<rect x="49" y="6" width="1" height="1" fill="#83769C" />
<rect x="50" y="6" width="1" height="1" fill="#FF004D" />
<rect x="51" y="6" width="1" height="1" fill="#FF004D" />
<rect x="52" y="6" width="1" height="1" fill="#FFA300" />
<rect x="53" y="6" width="1" height="1" fill="#FFA300" />
<rect x="54" y="6" width="1" height="1" fill="#83769C" />
<rect x="58" y="6" width="1" height="1" fill="#83769C" />
<rect x="59" y="6" width="1" height="1" fill="#FF004D" />
<rect x="60" y="6" width="1" height="1" fill="#FF004D" />
<rect x="61" y="6" width="1" height="1" fill="#FFA300" />
<rect x="62" y="6" width="1" height="1" fill="#FFA300" />
<rect x="1" y="7" width="1" height="1" fill="#854C30" />
<rect x="3" y="7" width="1" height="1" fill="#757161" />
<rect x="4" y="7" width="1" height="1" fill="#8595A1" />
<rect x="6" y="7" width="1" height="1" fill="#854C30" />
<rect x="10" y="7" width="1" height="1" fill="#8595A1" />
<rect x="11" y="7" width="1" height="1" fill="#757161" />
<rect x="13" y="7" width="1" height="1" fill="#854C30" />
<rect x="17" y="7" width="1" height="1" fill="#854C30" />
<rect x="19" y="7" width="1" height="1" fill="#8595A1" />
<rect x="20" y="7" width="1" height="1" fill="#757161" />
<rect x="22" y="7" width="1" height="1" fill="#854C30" />
<rect x="26" y="7" width="1" height="1" fill="#854C30" />
<rect x="28" y="7" width="1" height="1" fill="#8595A1" />
<rect x="29" y="7" width="1" height="1" fill="#757161" />
<rect x="33" y="7" width="1" height="1" fill="#AB5236" />
<rect x="35" y="7" width="1" height="1" fill="#83769C" />
<rect x="36" y="7" width="1" height="1" fill="#C2C3C7" />
<rect x="38" y="7" width="1" height="1" fill="#AB5236" />
<rect x="42" y="7" width="1" height="1" fill="#C2C3C7" />
<rect x="43" y="7" width="1" height="1" fill="#83769C" />
<rect x="45" y="7" width="1" height="1" fill="#AB5236" />
<rect x="49" y="7" width="1" height="1" fill="#AB5236" />
<rect x="51" y="7" width="1" height="1" fill="#C2C3C7" />
<rect x="52" y="7" width="1" height="1" fill="#83769C" />
<rect x="54" y="7" width="1" height="1" fill="#AB5236" />
<rect x="58" y="7" width="1" height="1" fill="#AB5236" />
<rect x="60" y="7" width="1" height="1" fill="#C2C3C7" />
<rect x="61" y="7" width="1" height="1" fill="#83769C" />
<rect x="2" y="8" width="1" height="1" fill="#4E4A4E" />
<rect x="3" y="8" width="1" height="1" fill="#757161" />
<rect x="4" y="8" width="1" height="1" fill="#8595A1" />
<rect x="5" y="8" width="1" height="1" fill="#4E4A4E" />
<rect x="10" y="8" width="1" height="1" fill="#4E4A4E" />
<rect x="11" y="8" width="1" height="1" fill="#8595A1" />
<rect x="12" y="8" width="1" height="1" fill="#4E4A4E" />
<rect x="18" y="8" width="1" height="1" fill="#4E4A4E" />
<rect x="19" y="8" width="1" height="1" fill="#8595A1" />
<rect x="20" y="8" width="1" height="1" fill="#757161" />
<rect x="21" y="8" width="1" height="1" fill="#4E4A4E" />
<rect x="27" y="8" width="1" height="1" fill="#4E4A4E" />
<rect x="28" y="8" width="1" height="1" fill="#757161" />
<rect x="29" y="8" width="1" height="1" fill="#4E4A4E" />
<rect x="34" y="8" width="1" height="1" fill="#5F574F" />
<rect x="35" y="8" width="1" height="1" fill="#83769C" />
<rect x="36" y="8" width="1" height="1" fill="#C2C3C7" />
<rect x="37" y="8" width="1" height="1" fill="#5F574F" />
<rect x="42" y="8" width="1" height="1" fill="#5F574F" />
<rect x="43" y="8" width="1" height="1" fill="#C2C3C7" />
<rect x="44" y="8" width="1" height="1" fill="#5F574F" />
<rect x="50" y="8" width="1" height="1" fill="#5F574F" />
<rect x="51" y="8" width="1" height="1" fill="#C2C3C7" />
<rect x="52" y="8" width="1" height="1" fill="#83769C" />
<rect x="53" y="8" width="1" height="1" fill="#5F574F" />
<rect x="59" y="8" width="1" height="1" fill="#5F574F" />
<rect x="60" y="8" width="1" height="1" fill="#83769C" />
<rect x="61" y="8" width="1" height="1" fill="#5F574F" />
<rect x="2" y="9" width="1" height="1" fill="#757161" />
<rect x="5" y="9" width="1" height="1" fill="#757161" />
<rect x="10" y="9" width="1" height="1" fill="#757161" />
<rect x="12" y="9" width="1" height="1" fill="#8595A1" />
<rect x="18" y="9" width="1" height="1" fill="#757161" />
<rect x="21" y="9" width="1" height="1" fill="#8595A1" />
<rect x="27" y="9" width="1" height="1" fill="#757161" />
<rect x="29" y="9" width="1" height="1" fill="#8595A1" />
<rect x="34" y="9" width="1" height="1" fill="#83769C" />
<rect x="37" y="9" width="1" height="1" fill="#83769C" />
<rect x="42" y="9" width="1" height="1" fill="#83769C" />
<rect x="44" y="9" width="1" height="1" fill="#C2C3C7" />
<rect x="50" y="9" width="1" height="1" fill="#83769C" />
<rect x="53" y="9" width="1" height="1" fill="#C2C3C7" />
<rect x="59" y="9" width="1" height="1" fill="#83769C" />
<rect x="61" y="9" width="1" height="1" fill="#C2C3C7" />
<rect x="2" y="10" width="1" height="1" fill="#757161" />
<rect x="5" y="10" width="1" height="1" fill="#757161" />
<rect x="10" y="10" width="1" height="1" fill="#757161" />
<rect x="12" y="10" width="1" height="1" fill="#8595A1" />
<rect x="18" y="10" width="1" height="1" fill="#757161" />
<rect x="21" y="10" width="1" height="1" fill="#8595A1" />
<rect x="27" y="10" width="1" height="1" fill="#757161" />
<rect x="29" y="10" width="1" height="1" fill="#8595A1" />
<rect x="34" y="10" width="1" height="1" fill="#83769C" />
<rect x="37" y="10" width="1" height="1" fill="#83769C" />
<rect x="42" y="10" width="1" height="1" fill="#83769C" />
<rect x="44" y="10" width="1" height="1" fill="#C2C3C7" />
<rect x="50" y="10" width="1" height="1" fill="#83769C" />
<rect x="53" y="10" width="1" height="1" fill="#C2C3C7" />
<rect x="59" y="10" width="1" height="1" fill="#83769C" />
<rect x="61" y="10" width="1" height="1" fill="#C2C3C7" />
<rect x="2" y="11" width="1" height="1" fill="#757161" />
<rect x="5" y="11" width="1" height="1" fill="#757161" />
<rect x="10" y="11" width="1" height="1" fill="#757161" />
<rect x="12" y="11" width="1" height="1" fill="#8595A1" />
<rect x="18" y="11" width="1" height="1" fill="#757161" />
<rect x="21" y="11" width="1" height="1" fill="#8595A1" />
<rect x="27" y="11" width="1" height="1" fill="#757161" />
<rect x="29" y="11" width="1" height="1" fill="#8595A1" />
<rect x="34" y="11" width="1" height="1" fill="#83769C" />
<rect x="37" y="11" width="1" height="1" fill="#83769C" />
<rect x="42" y="11" width="1" height="1" fill="#83769C" />
<rect x="44" y="11" width="1" height="1" fill="#C2C3C7" />
<rect x="50" y="11" width="1" height="1" fill="#83769C" />
<rect x="53" y="11" width="1" height="1" fill="#C2C3C7" />
<rect x="59" y="11" width="1" height="1" fill="#83769C" />
<rect x="61" y="11" width="1" height="1" fill="#C2C3C7" />
<rect x="2" y="12" width="1" height="1" fill="#757161" />
<rect x="5" y="12" width="1" height="1" fill="#757161" />
<rect x="10" y="12" width="1" height="1" fill="#757161" />
<rect x="12" y="12" width="1" height="1" fill="#4E4A4E" />
<rect x="18" y="12" width="1" height="1" fill="#757161" />
<rect x="21" y="12" width="1" height="1" fill="#8595A1" />
<rect x="27" y="12" width="1" height="1" fill="#4E4A4E" />
<rect x="29" y="12" width="1" height="1" fill="#8595A1" />
<rect x="34" y="12" width="1" height="1" fill="#83769C" />
<rect x="37" y="12" width="1" height="1" fill="#83769C" />
<rect x="42" y="12" width="1" height="1" fill="#83769C" />
<rect x="44" y="12" width="1" height="1" fill="#5F574F" />
<rect x="50" y="12" width="1" height="1" fill="#83769C" />
<rect x="53" y="12" width="1" height="1" fill="#C2C3C7" />
<rect x="59" y="12" width="1" height="1" fill="#5F574F" />
<rect x="61" y="12" width="1" height="1" fill="#C2C3C7" />
<rect x="2" y="13" width="1" height="1" fill="#8595A1" />
<rect x="5" y="13" width="1" height="1" fill="#8595A1" />
<rect x="10" y="13" width="1" height="1" fill="#4E4A4E" />
<rect x="12" y="13" width="1" height="1" fill="#DAD45E" />
<rect x="18" y="13" width="1" height="1" fill="#4E4A4E" />
<rect x="21" y="13" width="1" height="1" fill="#4E4A4E" />
<rect x="27" y="13" width="1" height="1" fill="#DAD45E" />
<rect x="29" y="13" width="1" height="1" fill="#4E4A4E" />
<rect x="34" y="13" width="1" height="1" fill="#C2C3C7" />
<rect x="37" y="13" width="1" height="1" fill="#C2C3C7" />
<rect x="42" y="13" width="1" height="1" fill="#5F574F" />
<rect x="44" y="13" width="1" height="1" fill="#FFEC27" />
<rect x="50" y="13" width="1" height="1" fill="#5F574F" />
<rect x="53" y="13" width="1" height="1" fill="#5F574F" />
<rect x="59" y="13" width="1" height="1" fill="#FFEC27" />
<rect x="61" y="13" width="1" height="1" fill="#5F574F" />
<rect x="2" y="14" width="1" height="1" fill="#8595A1" />
<rect x="5" y="14" width="1" height="1" fill="#8595A1" />
<rect x="10" y="14" width="1" height="1" fill="#4E4A4E" />
<rect x="12" y="14" width="1" height="1" fill="#DAD45E" />
<rect x="18" y="14" width="1" height="1" fill="#4E4A4E" />
<rect x="21" y="14" width="1" height="1" fill="#4E4A4E" />
<rect x="27" y="14" width="1" height="1" fill="#DAD45E" />
<rect x="29" y="14" width="1" height="1" fill="#4E4A4E" />
<rect x="34" y="14" width="1" height="1" fill="#C2C3C7" />
<rect x="37" y="14" width="1" height="1" fill="#C2C3C7" />
<rect x="42" y="14" width="1" height="1" fill="#5F574F" />
<rect x="44" y="14" width="1" height="1" fill="#FFEC27" />
<rect x="50" y="14" width="1" height="1" fill="#5F574F" />
<rect x="53" y="14" width="1" height="1" fill="#5F574F" />
<rect x="59" y="14" width="1" height="1" fill="#FFEC27" />
<rect x="61" y="14" width="1" height="1" fill="#5F574F" />
<rect x="2" y="15" width="1" height="1" fill="#DAD45E" />
<rect x="5" y="15" width="1" height="1" fill="#DAD45E" />
<rect x="10" y="15" width="1" height="1" fill="#DAD45E" />
<rect x="18" y="15" width="1" height="1" fill="#DAD45E" />
<rect x="21" y="15" width="1" height="1" fill="#DAD45E" />
<rect x="29" y="15" width="1" height="1" fill="#DAD45E" />
<rect x="34" y="15" width="1" height="1" fill="#FFEC27" />
<rect x="37" y="15" width="1" height="1" fill="#FFEC27" />
<rect x="42" y="15" width="1" height="1" fill="#FFEC27" />
<rect x="50" y="15" width="1" height="1" fill="#FFEC27" />
<rect x="53" y="15" width="1" height="1" fill="#FFEC27" />
<rect x="61" y="15" width="1" height="1" fill="#FFEC27" />
<rect x="2" y="16" width="1" height="1" fill="#DAD45E" />
<rect x="5" y="16" width="1" height="1" fill="#DAD45E" />
<rect x="10" y="16" width="1" height="1" fill="#DAD45E" />
<rect x="18" y="16" width="1" height="1" fill="#DAD45E" />
<rect x="21" y="16" width="1" height="1" fill="#DAD45E" />
<rect x="29" y="16" width="1" height="1" fill="#DAD45E" />
<rect x="34" y="16" width="1" height="1" fill="#FFEC27" />
<rect x="37" y="16" width="1" height="1" fill="#FFEC27" />
<rect x="42" y="16" width="1" height="1" fill="#FFEC27" />
<rect x="50" y="16" width="1" height="1" fill="#FFEC27" />
<rect x="53" y="16" width="1" height="1" fill="#FFEC27" />
<rect x="61" y="16" width="1" height="1" fill="#FFEC27" />
<rect x="2" y="17" width="1" height="1" fill="#DAD45E" />
<rect x="5" y="17" width="1" height="1" fill="#DAD45E" />
<rect x="10" y="17" width="1" height="1" fill="#DAD45E" />
<rect x="18" y="17" width="1" height="1" fill="#DAD45E" />
<rect x="21" y="17" width="1" height="1" fill="#DAD45E" />
<rect x="29" y="17" width="1" height="1" fill="#DAD45E" />
<rect x="34" y="17" width="1" height="1" fill="#FFEC27" />
<rect x="37" y="17" width="1" height="1" fill="#FFEC27" />
<rect x="42" y="17" width="1" height="1" fill="#FFEC27" />
<rect x="50" y="17" width="1" height="1" fill="#FFEC27" />
<rect x="53" y="17" width="1" height="1" fill="#FFEC27" />
<rect x="61" y="17" width="1" height="1" fill="#FFEC27" />
</svg>