# MagicaVoxel @ Ephtracy

# group
o 

# material
mtllib 8x8x8-crab.mtl
usemtl palette

# normals
vn -1 0 0
vn 1 0 0
vn 0 0 1
vn 0 0 -1
vn 0 -1 0
vn 0 1 0

# texcoords
vt 0.00976563 0.5
vt 0.0175781 0.5
vt 0.0292969 0.5
vt 0.0332031 0.5

# verts
v -0.6 0 0.1
v -0.6 0 0
v -0.6 0 -0.3
v -0.6 0 -0.4
v -0.6 0.1 0.1
v -0.6 0.1 0
v -0.6 0.1 -0.1
v -0.6 0.1 -0.3
v -0.6 0.1 -0.4
v -0.6 0.2 0
v -0.6 0.2 -0.1
v -0.5 0.1 0.3
v -0.5 0.1 0.1
v -0.5 0.1 0
v -0.5 0.1 -0.1
v -0.5 0.1 -0.2
v -0.5 0.1 -0.3
v -0.5 0.2 0.3
v -0.5 0.2 0.1
v -0.5 0.2 0
v -0.5 0.2 -0.1
v -0.5 0.2 -0.2
v -0.5 0.2 -0.3
v -0.4 0.1 0
v -0.4 0.1 -0.1
v -0.4 0.1 -0.4
v -0.4 0.1 -0.6
v -0.4 0.2 0
v -0.4 0.2 -0.1
v -0.4 0.2 -0.4
v -0.4 0.2 -0.6
v -0.3 0 -0.6
v -0.3 0 -0.7
v -0.3 0.1 -0.3
v -0.3 0.1 -0.4
v -0.3 0.1 -0.6
v -0.3 0.1 -0.7
v -0.3 0.2 -0.3
v -0.3 0.2 -0.4
v -0.2 0 -0.1
v -0.2 0 -0.4
v -0.2 0 -0.5
v -0.2 0.1 -0.1
v -0.2 0.1 -0.4
v -0.2 0.1 -0.5
v -0.2 0.2 0
v -0.2 0.2 -0.1
v -0.2 0.2 -0.4
v -0.2 0.3 0.1
v -0.2 0.3 0
v -0.2 0.3 -0.1
v -0.2 0.3 -0.4
v -0.2 0.4 0.1
v -0.2 0.4 0
v 0.1 0 -0.4
v 0.1 0 -0.5
v 0.1 0.1 0.4
v 0.1 0.1 0.3
v 0.1 0.1 -0.4
v 0.1 0.1 -0.5
v 0.1 0.2 0.4
v 0.1 0.2 0.3
v 0.1 0.2 0
v 0.1 0.2 -0.1
v 0.1 0.3 0.1
v 0.1 0.3 0
v 0.1 0.3 -0.1
v 0.1 0.4 0.1
v 0.1 0.4 0
v 0.2 0 0.4
v 0.2 0 0.3
v 0.2 0 0.2
v 0.2 0 0.1
v 0.2 0 -0.6
v 0.2 0 -0.7
v 0.2 0.1 0.4
v 0.2 0.1 0.3
v 0.2 0.1 0.2
v 0.2 0.1 0.1
v 0.2 0.1 -0.6
v 0.2 0.1 -0.7
v 0.2 0.2 0.2
v 0.2 0.2 0.1
v 0.3 0 0.3
v 0.3 0 0.2
v 0.3 0.1 0.3
v 0.3 0.1 0.2
v 0.3 0.1 0
v 0.3 0.1 -0.1
v 0.3 0.1 -0.4
v 0.3 0.1 -0.6
v 0.3 0.2 0
v 0.3 0.2 -0.1
v 0.3 0.2 -0.4
v 0.3 0.2 -0.6
v 0.4 0 0.1
v 0.4 0 0
v 0.4 0.1 0.3
v 0.4 0.1 0.2
v 0.4 0.1 0.1
v 0.4 0.1 0
v 0.4 0.2 0.3
v 0.4 0.2 0.2
v 0.5 0 -0.3
v 0.5 0 -0.4
v 0.5 0.1 0
v 0.5 0.1 -0.1
v 0.5 0.1 -0.3
v 0.5 0.1 -0.4
v 0.5 0.2 0
v 0.5 0.2 -0.1
v -0.5 0 0.1
v -0.5 0 0
v -0.5 0 -0.3
v -0.5 0 -0.4
v -0.5 0.1 0.1
v -0.5 0.1 0
v -0.5 0.1 -0.1
v -0.5 0.1 -0.3
v -0.5 0.1 -0.4
v -0.5 0.2 0
v -0.5 0.2 -0.1
v -0.4 0.1 0.3
v -0.4 0.1 0.2
v -0.4 0.1 0.1
v -0.4 0.1 0
v -0.4 0.2 0.3
v -0.4 0.2 0.2
v -0.4 0.2 0.1
v -0.4 0.2 0
v -0.3 0.1 0.2
v -0.3 0.1 0.1
v -0.3 0.1 0
v -0.3 0.1 -0.1
v -0.3 0.1 -0.4
v -0.3 0.1 -0.6
v -0.3 0.2 0.2
v -0.3 0.2 0.1
v -0.3 0.2 0
v -0.3 0.2 -0.1
v -0.3 0.2 -0.4
v -0.3 0.2 -0.6
v -0.2 0 -0.6
v -0.2 0 -0.7
v -0.2 0.1 -0.6
v -0.2 0.1 -0.7
v -0.1 0 -0.4
v -0.1 0 -0.5
v -0.1 0.1 -0.4
v -0.1 0.1 -0.5
v -0.1 0.2 0
v -0.1 0.2 -0.1
v -0.1 0.3 0.1
v -0.1 0.3 0
v -0.1 0.3 -0.1
v -0.1 0.4 0.1
v -0.1 0.4 0
v 0.2 0 -0.1
v 0.2 0 -0.4
v 0.2 0 -0.5
v 0.2 0.1 -0.1
v 0.2 0.1 -0.4
v 0.2 0.1 -0.5
v 0.2 0.2 0
v 0.2 0.2 -0.1
v 0.2 0.2 -0.4
v 0.2 0.3 0.1
v 0.2 0.3 0
v 0.2 0.3 -0.1
v 0.2 0.3 -0.4
v 0.2 0.4 0.1
v 0.2 0.4 0
v 0.3 0 -0.6
v 0.3 0 -0.7
v 0.3 0.1 -0.3
v 0.3 0.1 -0.4
v 0.3 0.1 -0.6
v 0.3 0.1 -0.7
v 0.3 0.2 -0.3
v 0.3 0.2 -0.4
v 0.4 0 0.4
v 0.4 0 0.3
v 0.4 0.1 0.4
v 0.4 0.1 0.3
v 0.4 0.1 0
v 0.4 0.1 -0.1
v 0.4 0.1 -0.4
v 0.4 0.1 -0.6
v 0.4 0.2 0.4
v 0.4 0.2 0.3
v 0.4 0.2 0
v 0.4 0.2 -0.1
v 0.4 0.2 -0.4
v 0.4 0.2 -0.6
v 0.5 0 0.3
v 0.5 0 0.1
v 0.5 0.1 0.3
v 0.5 0.1 0.1
v 0.5 0.1 -0.1
v 0.5 0.1 -0.2
v 0.5 0.1 -0.3
v 0.5 0.2 0.3
v 0.5 0.2 0.1
v 0.5 0.2 -0.1
v 0.5 0.2 -0.2
v 0.5 0.2 -0.3
v 0.6 0 0.1
v 0.6 0 0
v 0.6 0 -0.3
v 0.6 0 -0.4
v 0.6 0.1 0.1
v 0.6 0.1 0
v 0.6 0.1 -0.1
v 0.6 0.1 -0.3
v 0.6 0.1 -0.4
v 0.6 0.2 0
v 0.6 0.2 -0.1
v 0.1 0.1 0.4
v 0.1 0.2 0.4
v 0.2 0 0.4
v 0.2 0.1 0.4
v 0.4 0 0.4
v 0.4 0.1 0.4
v 0.4 0.2 0.4
v -0.5 0.1 0.3
v -0.5 0.2 0.3
v -0.4 0.1 0.3
v -0.4 0.2 0.3
v 0.4 0 0.3
v 0.4 0.1 0.3
v 0.4 0.2 0.3
v 0.5 0 0.3
v 0.5 0.1 0.3
v 0.5 0.2 0.3
v -0.4 0.1 0.2
v -0.4 0.2 0.2
v -0.3 0.1 0.2
v -0.3 0.2 0.2
v 0.2 0 0.2
v 0.2 0.1 0.2
v 0.2 0.2 0.2
v 0.3 0 0.2
v 0.3 0.1 0.2
v 0.4 0.1 0.2
v 0.4 0.2 0.2
v -0.6 0 0.1
v -0.6 0.1 0.1
v -0.5 0 0.1
v -0.5 0.1 0.1
v -0.2 0.3 0.1
v -0.2 0.4 0.1
v -0.1 0.3 0.1
v -0.1 0.4 0.1
v 0.1 0.3 0.1
v 0.1 0.4 0.1
v 0.2 0.3 0.1
v 0.2 0.4 0.1
v 0.5 0 0.1
v 0.5 0.1 0.1
v 0.6 0 0.1
v 0.6 0.1 0.1
v -0.6 0.1 0
v -0.6 0.2 0
v -0.5 0.1 0
v -0.5 0.2 0
v -0.4 0.1 0
v -0.4 0.2 0
v -0.3 0.1 0
v -0.3 0.2 0
v -0.2 0.2 0
v -0.2 0.3 0
v -0.1 0.2 0
v -0.1 0.3 0
v 0.1 0.2 0
v 0.1 0.3 0
v 0.2 0.2 0
v 0.2 0.3 0
v 0.3 0.1 0
v 0.3 0.2 0
v 0.4 0.1 0
v 0.4 0.2 0
v 0.5 0.1 0
v 0.5 0.2 0
v 0.6 0.1 0
v 0.6 0.2 0
v -0.5 0.1 -0.1
v -0.5 0.2 -0.1
v -0.4 0.1 -0.1
v -0.4 0.2 -0.1
v -0.3 0.1 -0.1
v -0.3 0.2 -0.1
v -0.2 0 -0.1
v -0.2 0.1 -0.1
v -0.2 0.2 -0.1
v -0.1 0.2 -0.1
v -0.1 0.3 -0.1
v 0.1 0.2 -0.1
v 0.1 0.3 -0.1
v 0.2 0 -0.1
v 0.2 0.1 -0.1
v 0.2 0.2 -0.1
v 0.3 0.1 -0.1
v 0.3 0.2 -0.1
v 0.4 0.1 -0.1
v 0.4 0.2 -0.1
v 0.5 0.1 -0.1
v 0.5 0.2 -0.1
v -0.6 0 -0.3
v -0.6 0.1 -0.3
v -0.5 0 -0.3
v -0.5 0.1 -0.3
v 0.5 0 -0.3
v 0.5 0.1 -0.3
v 0.6 0 -0.3
v 0.6 0.1 -0.3
v -0.4 0.1 -0.4
v -0.4 0.2 -0.4
v -0.3 0.1 -0.4
v -0.3 0.2 -0.4
v 0.3 0.1 -0.4
v 0.3 0.2 -0.4
v 0.4 0.1 -0.4
v 0.4 0.2 -0.4
v -0.3 0 -0.6
v -0.3 0.1 -0.6
v -0.2 0 -0.6
v -0.2 0.1 -0.6
v 0.2 0 -0.6
v 0.2 0.1 -0.6
v 0.3 0 -0.6
v 0.3 0.1 -0.6
v 0.1 0.1 0.3
v 0.1 0.2 0.3
v 0.2 0 0.3
v 0.2 0.1 0.3
v 0.3 0 0.3
v 0.3 0.1 0.3
v 0.4 0.1 0.3
v 0.4 0.2 0.3
v -0.4 0.1 0.1
v -0.4 0.2 0.1
v -0.3 0.1 0.1
v -0.3 0.2 0.1
v 0.2 0 0.1
v 0.2 0.1 0.1
v 0.2 0.2 0.1
v 0.4 0 0.1
v 0.4 0.1 0.1
v 0.5 0.1 0.1
v 0.5 0.2 0.1
v -0.6 0 0
v -0.6 0.1 0
v -0.5 0 0
v -0.5 0.1 0
v -0.5 0.2 0
v -0.4 0.1 0
v -0.4 0.2 0
v -0.2 0.3 0
v -0.2 0.4 0
v -0.1 0.3 0
v -0.1 0.4 0
v 0.1 0.3 0
v 0.1 0.4 0
v 0.2 0.3 0
v 0.2 0.4 0
v 0.4 0 0
v 0.4 0.1 0
v 0.5 0 0
v 0.5 0.1 0
v 0.6 0 0
v 0.6 0.1 0
v -0.6 0.1 -0.1
v -0.6 0.2 -0.1
v -0.5 0.1 -0.1
v -0.5 0.2 -0.1
v 0.5 0.1 -0.1
v 0.5 0.2 -0.1
v 0.6 0.1 -0.1
v 0.6 0.2 -0.1
v -0.5 0.1 -0.3
v -0.5 0.2 -0.3
v -0.3 0.1 -0.3
v -0.3 0.2 -0.3
v 0.3 0.1 -0.3
v 0.3 0.2 -0.3
v 0.5 0.1 -0.3
v 0.5 0.2 -0.3
v -0.6 0 -0.4
v -0.6 0.1 -0.4
v -0.5 0 -0.4
v -0.5 0.1 -0.4
v -0.3 0.1 -0.4
v -0.3 0.2 -0.4
v -0.2 0.1 -0.4
v -0.2 0.2 -0.4
v -0.2 0.3 -0.4
v -0.1 0 -0.4
v -0.1 0.1 -0.4
v 0.1 0 -0.4
v 0.1 0.1 -0.4
v 0.2 0.1 -0.4
v 0.2 0.2 -0.4
v 0.2 0.3 -0.4
v 0.3 0.1 -0.4
v 0.3 0.2 -0.4
v 0.5 0 -0.4
v 0.5 0.1 -0.4
v 0.6 0 -0.4
v 0.6 0.1 -0.4
v -0.2 0 -0.5
v -0.2 0.1 -0.5
v -0.1 0 -0.5
v -0.1 0.1 -0.5
v 0.1 0 -0.5
v 0.1 0.1 -0.5
v 0.2 0 -0.5
v 0.2 0.1 -0.5
v -0.4 0.1 -0.6
v -0.4 0.2 -0.6
v -0.3 0.1 -0.6
v -0.3 0.2 -0.6
v 0.3 0.1 -0.6
v 0.3 0.2 -0.6
v 0.4 0.1 -0.6
v 0.4 0.2 -0.6
v -0.3 0 -0.7
v -0.3 0.1 -0.7
v -0.2 0 -0.7
v -0.2 0.1 -0.7
v 0.2 0 -0.7
v 0.2 0.1 -0.7
v 0.3 0 -0.7
v 0.3 0.1 -0.7
v 0.2 0 0.4
v 0.4 0 0.4
v 0.2 0 0.3
v 0.3 0 0.3
v 0.4 0 0.3
v 0.5 0 0.3
v 0.2 0 0.2
v 0.3 0 0.2
v -0.6 0 0.1
v -0.5 0 0.1
v 0.2 0 0.1
v 0.4 0 0.1
v 0.5 0 0.1
v 0.6 0 0.1
v -0.6 0 0
v -0.5 0 0
v 0.4 0 0
v 0.5 0 0
v 0.6 0 0
v -0.2 0 -0.1
v 0.2 0 -0.1
v -0.6 0 -0.3
v -0.5 0 -0.3
v 0.5 0 -0.3
v 0.6 0 -0.3
v -0.6 0 -0.4
v -0.5 0 -0.4
v -0.2 0 -0.4
v -0.1 0 -0.4
v 0.1 0 -0.4
v 0.2 0 -0.4
v 0.5 0 -0.4
v 0.6 0 -0.4
v -0.2 0 -0.5
v -0.1 0 -0.5
v 0.1 0 -0.5
v 0.2 0 -0.5
v -0.3 0 -0.6
v -0.2 0 -0.6
v 0.2 0 -0.6
v 0.3 0 -0.6
v -0.3 0 -0.7
v -0.2 0 -0.7
v 0.2 0 -0.7
v 0.3 0 -0.7
v 0.1 0.1 0.4
v 0.2 0.1 0.4
v -0.5 0.1 0.3
v -0.4 0.1 0.3
v 0.1 0.1 0.3
v 0.2 0.1 0.3
v -0.4 0.1 0.2
v -0.3 0.1 0.2
v -0.5 0.1 0.1
v -0.4 0.1 0.1
v -0.3 0.1 0.1
v -0.6 0.1 0
v -0.5 0.1 0
v -0.4 0.1 0
v -0.3 0.1 0
v 0.3 0.1 0
v 0.4 0.1 0
v 0.5 0.1 0
v 0.6 0.1 0
v -0.6 0.1 -0.1
v -0.5 0.1 -0.1
v -0.4 0.1 -0.1
v -0.3 0.1 -0.1
v -0.2 0.1 -0.1
v 0.2 0.1 -0.1
v 0.3 0.1 -0.1
v 0.4 0.1 -0.1
v 0.5 0.1 -0.1
v 0.6 0.1 -0.1
v -0.5 0.1 -0.2
v -0.3 0.1 -0.2
v 0.3 0.1 -0.2
v 0.5 0.1 -0.2
v -0.5 0.1 -0.3
v -0.3 0.1 -0.3
v 0.3 0.1 -0.3
v 0.5 0.1 -0.3
v -0.4 0.1 -0.4
v -0.3 0.1 -0.4
v -0.2 0.1 -0.4
v 0.2 0.1 -0.4
v 0.3 0.1 -0.4
v 0.4 0.1 -0.4
v -0.4 0.1 -0.6
v -0.3 0.1 -0.6
v 0.3 0.1 -0.6
v 0.4 0.1 -0.6
v -0.2 0.2 0
v -0.1 0.2 0
v 0.1 0.2 0
v 0.2 0.2 0
v -0.2 0.2 -0.1
v -0.1 0.2 -0.1
v 0.1 0.2 -0.1
v 0.2 0.2 -0.1
v -0.2 0.3 0.1
v -0.1 0.3 0.1
v 0.1 0.3 0.1
v 0.2 0.3 0.1
v -0.2 0.3 0
v -0.1 0.3 0
v 0.1 0.3 0
v 0.2 0.3 0
v 0.3 0.1 0.3
v 0.4 0.1 0.3
v 0.3 0.1 0.2
v 0.4 0.1 0.2
v -0.6 0.1 0.1
v -0.5 0.1 0.1
v 0.4 0.1 0.1
v 0.5 0.1 0.1
v 0.6 0.1 0.1
v -0.6 0.1 0
v -0.5 0.1 0
v 0.4 0.1 0
v 0.5 0.1 0
v 0.6 0.1 0
v -0.6 0.1 -0.3
v -0.5 0.1 -0.3
v 0.5 0.1 -0.3
v 0.6 0.1 -0.3
v -0.6 0.1 -0.4
v -0.5 0.1 -0.4
v -0.2 0.1 -0.4
v -0.1 0.1 -0.4
v 0.1 0.1 -0.4
v 0.2 0.1 -0.4
v 0.5 0.1 -0.4
v 0.6 0.1 -0.4
v -0.2 0.1 -0.5
v -0.1 0.1 -0.5
v 0.1 0.1 -0.5
v 0.2 0.1 -0.5
v -0.3 0.1 -0.6
v -0.2 0.1 -0.6
v 0.2 0.1 -0.6
v 0.3 0.1 -0.6
v -0.3 0.1 -0.7
v -0.2 0.1 -0.7
v 0.2 0.1 -0.7
v 0.3 0.1 -0.7
v 0.1 0.2 0.4
v 0.4 0.2 0.4
v -0.5 0.2 0.3
v -0.4 0.2 0.3
v 0.1 0.2 0.3
v 0.4 0.2 0.3
v 0.5 0.2 0.3
v -0.4 0.2 0.2
v -0.3 0.2 0.2
v 0.2 0.2 0.2
v 0.4 0.2 0.2
v -0.5 0.2 0.1
v -0.4 0.2 0.1
v -0.3 0.2 0.1
v 0.2 0.2 0.1
v 0.5 0.2 0.1
v -0.6 0.2 0
v -0.5 0.2 0
v -0.4 0.2 0
v -0.3 0.2 0
v 0.3 0.2 0
v 0.4 0.2 0
v 0.5 0.2 0
v 0.6 0.2 0
v -0.6 0.2 -0.1
v -0.5 0.2 -0.1
v -0.4 0.2 -0.1
v -0.3 0.2 -0.1
v -0.2 0.2 -0.1
v 0.2 0.2 -0.1
v 0.3 0.2 -0.1
v 0.4 0.2 -0.1
v 0.5 0.2 -0.1
v 0.6 0.2 -0.1
v -0.5 0.2 -0.2
v -0.3 0.2 -0.2
v 0.3 0.2 -0.2
v 0.5 0.2 -0.2
v -0.5 0.2 -0.3
v -0.3 0.2 -0.3
v 0.3 0.2 -0.3
v 0.5 0.2 -0.3
v -0.4 0.2 -0.4
v -0.3 0.2 -0.4
v -0.2 0.2 -0.4
v 0.2 0.2 -0.4
v 0.3 0.2 -0.4
v 0.4 0.2 -0.4
v -0.4 0.2 -0.6
v -0.3 0.2 -0.6
v 0.3 0.2 -0.6
v 0.4 0.2 -0.6
v -0.2 0.3 0
v -0.1 0.3 0
v 0.1 0.3 0
v 0.2 0.3 0
v -0.2 0.3 -0.1
v -0.1 0.3 -0.1
v 0.1 0.3 -0.1
v 0.2 0.3 -0.1
v -0.2 0.3 -0.4
v 0.2 0.3 -0.4
v -0.2 0.4 0.1
v -0.1 0.4 0.1
v 0.1 0.4 0.1
v 0.2 0.4 0.1
v -0.2 0.4 0
v -0.1 0.4 0
v 0.1 0.4 0
v 0.2 0.4 0

# faces
f 5/4/1 2/4/1 1/4/1
f 6/4/1 2/4/1 5/4/1
f 8/2/1 4/2/1 3/2/1
f 9/2/1 4/2/1 8/2/1
f 10/4/1 7/4/1 6/4/1
f 11/4/1 7/4/1 10/4/1
f 18/4/1 13/4/1 12/4/1
f 19/2/1 14/2/1 13/2/1
f 19/4/1 13/4/1 18/4/1
f 20/2/1 14/2/1 19/2/1
f 21/4/1 16/4/1 15/4/1
f 22/2/1 17/2/1 16/2/1
f 22/4/1 16/4/1 21/4/1
f 23/2/1 17/2/1 22/2/1
f 28/2/1 25/2/1 24/2/1
f 29/2/1 25/2/1 28/2/1
f 30/4/1 27/4/1 26/4/1
f 31/4/1 27/4/1 30/4/1
f 36/4/1 33/4/1 32/4/1
f 37/4/1 33/4/1 36/4/1
f 38/2/1 35/2/1 34/2/1
f 39/2/1 35/2/1 38/2/1
f 43/1/1 41/1/1 40/1/1
f 44/4/1 42/4/1 41/4/1
f 44/1/1 41/1/1 43/1/1
f 45/4/1 42/4/1 44/4/1
f 50/2/1 47/2/1 46/2/1
f 51/4/1 48/4/1 47/4/1
f 51/2/1 47/2/1 50/2/1
f 52/4/1 48/4/1 51/4/1
f 53/3/1 50/3/1 49/3/1
f 54/3/1 50/3/1 53/3/1
f 59/4/1 56/4/1 55/4/1
f 60/4/1 56/4/1 59/4/1
f 61/4/1 58/4/1 57/4/1
f 62/4/1 58/4/1 61/4/1
f 66/2/1 64/2/1 63/2/1
f 67/2/1 64/2/1 66/2/1
f 68/3/1 66/3/1 65/3/1
f 69/3/1 66/3/1 68/3/1
f 76/2/1 71/2/1 70/2/1
f 77/2/1 71/2/1 76/2/1
f 78/2/1 73/2/1 72/2/1
f 79/2/1 73/2/1 78/2/1
f 80/4/1 75/4/1 74/4/1
f 81/4/1 75/4/1 80/4/1
f 82/4/1 79/4/1 78/4/1
f 83/4/1 79/4/1 82/4/1
f 86/2/1 85/2/1 84/2/1
f 87/2/1 85/2/1 86/2/1
f 92/2/1 89/2/1 88/2/1
f 93/2/1 89/2/1 92/2/1
f 94/4/1 91/4/1 90/4/1
f 95/4/1 91/4/1 94/4/1
f 100/2/1 97/2/1 96/2/1
f 101/2/1 97/2/1 100/2/1
f 102/4/1 99/4/1 98/4/1
f 103/4/1 99/4/1 102/4/1
f 108/2/1 105/2/1 104/2/1
f 109/2/1 105/2/1 108/2/1
f 110/4/1 107/4/1 106/4/1
f 111/4/1 107/4/1 110/4/1
f 112/4/2 113/4/2 116/4/2
f 116/4/2 113/4/2 117/4/2
f 114/2/2 115/2/2 119/2/2
f 119/2/2 115/2/2 120/2/2
f 117/4/2 118/4/2 121/4/2
f 121/4/2 118/4/2 122/4/2
f 123/4/2 124/4/2 127/4/2
f 127/4/2 124/4/2 128/4/2
f 125/2/2 126/2/2 129/2/2
f 129/2/2 126/2/2 130/2/2
f 131/4/2 132/4/2 137/4/2
f 137/4/2 132/4/2 138/4/2
f 133/2/2 134/2/2 139/2/2
f 139/2/2 134/2/2 140/2/2
f 135/4/2 136/4/2 141/4/2
f 141/4/2 136/4/2 142/4/2
f 143/4/2 144/4/2 145/4/2
f 145/4/2 144/4/2 146/4/2
f 147/4/2 148/4/2 149/4/2
f 149/4/2 148/4/2 150/4/2
f 151/2/2 152/2/2 154/2/2
f 154/2/2 152/2/2 155/2/2
f 153/3/2 154/3/2 156/3/2
f 156/3/2 154/3/2 157/3/2
f 158/1/2 159/1/2 161/1/2
f 159/4/2 160/4/2 162/4/2
f 161/1/2 159/1/2 162/1/2
f 162/4/2 160/4/2 163/4/2
f 164/2/2 165/2/2 168/2/2
f 165/4/2 166/4/2 169/4/2
f 168/2/2 165/2/2 169/2/2
f 169/4/2 166/4/2 170/4/2
f 167/3/2 168/3/2 171/3/2
f 171/3/2 168/3/2 172/3/2
f 173/4/2 174/4/2 177/4/2
f 177/4/2 174/4/2 178/4/2
f 175/2/2 176/2/2 179/2/2
f 179/2/2 176/2/2 180/2/2
f 181/2/2 182/2/2 183/2/2
f 183/2/2 182/2/2 184/2/2
f 183/4/2 184/4/2 189/4/2
f 189/4/2 184/4/2 190/4/2
f 185/2/2 186/2/2 191/2/2
f 191/2/2 186/2/2 192/2/2
f 187/4/2 188/4/2 193/4/2
f 193/4/2 188/4/2 194/4/2
f 195/2/2 196/2/2 197/2/2
f 197/2/2 196/2/2 198/2/2
f 197/4/2 198/4/2 202/4/2
f 202/4/2 198/4/2 203/4/2
f 199/4/2 200/4/2 204/4/2
f 200/2/2 201/2/2 205/2/2
f 204/4/2 200/4/2 205/4/2
f 205/2/2 201/2/2 206/2/2
f 207/4/2 208/4/2 211/4/2
f 211/4/2 208/4/2 212/4/2
f 209/2/2 210/2/2 214/2/2
f 214/2/2 210/2/2 215/2/2
f 212/4/2 213/4/2 216/4/2
f 216/4/2 213/4/2 217/4/2
f 221/4/3 219/4/3 218/4/3
f 222/2/3 221/2/3 220/2/3
f 223/4/3 219/4/3 221/4/3
f 223/2/3 221/2/3 222/2/3
f 224/4/3 219/4/3 223/4/3
f 227/4/3 226/4/3 225/4/3
f 228/4/3 226/4/3 227/4/3
f 232/2/3 230/2/3 229/2/3
f 233/4/3 231/4/3 230/4/3
f 233/2/3 230/2/3 232/2/3
f 234/4/3 231/4/3 233/4/3
f 237/4/3 236/4/3 235/4/3
f 238/4/3 236/4/3 237/4/3
f 242/2/3 240/2/3 239/2/3
f 243/4/3 241/4/3 240/4/3
f 243/2/3 240/2/3 242/2/3
f 244/4/3 241/4/3 243/4/3
f 245/4/3 241/4/3 244/4/3
f 248/4/3 247/4/3 246/4/3
f 249/4/3 247/4/3 248/4/3
f 252/3/3 251/3/3 250/3/3
f 253/3/3 251/3/3 252/3/3
f 256/3/3 255/3/3 254/3/3
f 257/3/3 255/3/3 256/3/3
f 260/4/3 259/4/3 258/4/3
f 261/4/3 259/4/3 260/4/3
f 264/4/3 263/4/3 262/4/3
f 265/4/3 263/4/3 264/4/3
f 268/2/3 267/2/3 266/2/3
f 269/2/3 267/2/3 268/2/3
f 272/2/3 271/2/3 270/2/3
f 273/2/3 271/2/3 272/2/3
f 276/2/3 275/2/3 274/2/3
f 277/2/3 275/2/3 276/2/3
f 280/2/3 279/2/3 278/2/3
f 281/2/3 279/2/3 280/2/3
f 284/4/3 283/4/3 282/4/3
f 285/4/3 283/4/3 284/4/3
f 288/4/3 287/4/3 286/4/3
f 289/4/3 287/4/3 288/4/3
f 293/2/3 291/2/3 290/2/3
f 294/2/3 291/2/3 293/2/3
f 295/2/3 294/2/3 293/2/3
f 297/2/3 295/2/3 293/2/3
f 297/4/3 296/4/3 295/4/3
f 298/4/3 296/4/3 297/4/3
f 299/1/3 293/1/3 292/1/3
f 300/2/3 297/2/3 293/2/3
f 300/1/3 293/1/3 299/1/3
f 301/2/3 297/2/3 300/2/3
f 302/2/3 301/2/3 300/2/3
f 303/2/3 301/2/3 302/2/3
f 306/4/3 305/4/3 304/4/3
f 307/4/3 305/4/3 306/4/3
f 310/2/3 309/2/3 308/2/3
f 311/2/3 309/2/3 310/2/3
f 314/2/3 313/2/3 312/2/3
f 315/2/3 313/2/3 314/2/3
f 318/4/3 317/4/3 316/4/3
f 319/4/3 317/4/3 318/4/3
f 322/4/3 321/4/3 320/4/3
f 323/4/3 321/4/3 322/4/3
f 326/4/3 325/4/3 324/4/3
f 327/4/3 325/4/3 326/4/3
f 330/4/3 329/4/3 328/4/3
f 331/4/3 329/4/3 330/4/3
f 332/4/4 333/4/4 335/4/4
f 334/2/4 335/2/4 336/2/4
f 335/4/4 333/4/4 337/4/4
f 336/2/4 335/2/4 337/2/4
f 337/4/4 333/4/4 338/4/4
f 338/4/4 333/4/4 339/4/4
f 340/4/4 341/4/4 342/4/4
f 342/4/4 341/4/4 343/4/4
f 344/2/4 345/2/4 347/2/4
f 345/4/4 346/4/4 348/4/4
f 347/2/4 345/2/4 348/2/4
f 348/4/4 346/4/4 349/4/4
f 349/4/4 346/4/4 350/4/4
f 351/4/4 352/4/4 353/4/4
f 353/4/4 352/4/4 354/4/4
f 354/2/4 355/2/4 356/2/4
f 356/2/4 355/2/4 357/2/4
f 358/3/4 359/3/4 360/3/4
f 360/3/4 359/3/4 361/3/4
f 362/3/4 363/3/4 364/3/4
f 364/3/4 363/3/4 365/3/4
f 366/2/4 367/2/4 368/2/4
f 368/2/4 367/2/4 369/2/4
f 368/4/4 369/4/4 370/4/4
f 370/4/4 369/4/4 371/4/4
f 372/4/4 373/4/4 374/4/4
f 374/4/4 373/4/4 375/4/4
f 376/4/4 377/4/4 378/4/4
f 378/4/4 377/4/4 379/4/4
f 380/2/4 381/2/4 382/2/4
f 382/2/4 381/2/4 383/2/4
f 384/2/4 385/2/4 386/2/4
f 386/2/4 385/2/4 387/2/4
f 388/2/4 389/2/4 390/2/4
f 390/2/4 389/2/4 391/2/4
f 392/2/4 393/2/4 394/2/4
f 394/2/4 393/2/4 395/2/4
f 394/2/4 395/2/4 398/2/4
f 397/1/4 398/1/4 399/1/4
f 398/2/4 395/2/4 400/2/4
f 399/1/4 398/1/4 400/1/4
f 400/2/4 395/2/4 401/2/4
f 395/4/4 396/4/4 402/4/4
f 401/2/4 395/2/4 402/2/4
f 402/4/4 396/4/4 403/4/4
f 401/2/4 402/2/4 404/2/4
f 404/2/4 402/2/4 405/2/4
f 406/2/4 407/2/4 408/2/4
f 408/2/4 407/2/4 409/2/4
f 410/4/4 411/4/4 412/4/4
f 412/4/4 411/4/4 413/4/4
f 414/4/4 415/4/4 416/4/4
f 416/4/4 415/4/4 417/4/4
f 418/4/4 419/4/4 420/4/4
f 420/4/4 419/4/4 421/4/4
f 422/4/4 423/4/4 424/4/4
f 424/4/4 423/4/4 425/4/4
f 426/4/4 427/4/4 428/4/4
f 428/4/4 427/4/4 429/4/4
f 430/4/4 431/4/4 432/4/4
f 432/4/4 431/4/4 433/4/4
f 436/2/5 435/2/5 434/2/5
f 437/2/5 435/2/5 436/2/5
f 438/2/5 435/2/5 437/2/5
f 441/2/5 439/2/5 438/2/5
f 441/2/5 438/2/5 437/2/5
f 444/2/5 441/2/5 440/2/5
f 445/2/5 439/2/5 441/2/5
f 445/2/5 441/2/5 444/2/5
f 446/2/5 439/2/5 445/2/5
f 448/4/5 443/4/5 442/4/5
f 449/4/5 443/4/5 448/4/5
f 450/2/5 446/2/5 445/2/5
f 451/4/5 447/4/5 446/4/5
f 451/2/5 446/2/5 450/2/5
f 452/4/5 447/4/5 451/4/5
f 459/2/5 456/2/5 455/2/5
f 460/2/5 456/2/5 459/2/5
f 461/1/5 454/1/5 453/1/5
f 462/1/5 454/1/5 461/1/5
f 463/1/5 454/1/5 462/1/5
f 464/1/5 454/1/5 463/1/5
f 465/2/5 458/2/5 457/2/5
f 466/2/5 458/2/5 465/2/5
f 467/4/5 462/4/5 461/4/5
f 468/4/5 462/4/5 467/4/5
f 469/4/5 464/4/5 463/4/5
f 470/4/5 464/4/5 469/4/5
f 475/4/5 472/4/5 471/4/5
f 476/4/5 472/4/5 475/4/5
f 477/4/5 474/4/5 473/4/5
f 478/4/5 474/4/5 477/4/5
f 483/4/5 480/4/5 479/4/5
f 484/4/5 480/4/5 483/4/5
f 485/4/5 482/4/5 481/4/5
f 487/4/5 485/4/5 481/4/5
f 487/4/5 486/4/5 485/4/5
f 488/4/5 486/4/5 487/4/5
f 489/4/5 486/4/5 488/4/5
f 491/2/5 488/2/5 487/2/5
f 492/2/5 488/2/5 491/2/5
f 498/4/5 491/4/5 490/4/5
f 499/4/5 491/4/5 498/4/5
f 500/2/5 493/2/5 492/2/5
f 501/2/5 493/2/5 500/2/5
f 504/2/5 495/2/5 494/2/5
f 505/2/5 495/2/5 504/2/5
f 506/4/5 497/4/5 496/4/5
f 507/4/5 497/4/5 506/4/5
f 508/4/5 500/4/5 499/4/5
f 508/4/5 501/4/5 500/4/5
f 509/2/5 502/2/5 501/2/5
f 509/4/5 501/4/5 508/4/5
f 510/4/5 505/4/5 504/4/5
f 510/4/5 506/4/5 505/4/5
f 510/2/5 504/2/5 503/2/5
f 511/4/5 506/4/5 510/4/5
f 512/2/5 509/2/5 508/2/5
f 513/2/5 502/2/5 509/2/5
f 513/2/5 509/2/5 512/2/5
f 514/2/5 510/2/5 503/2/5
f 514/2/5 511/2/5 510/2/5
f 515/2/5 511/2/5 514/2/5
f 517/2/5 502/2/5 513/2/5
f 518/2/5 502/2/5 517/2/5
f 519/2/5 514/2/5 503/2/5
f 520/2/5 514/2/5 519/2/5
f 522/4/5 517/4/5 516/4/5
f 523/4/5 517/4/5 522/4/5
f 524/4/5 521/4/5 520/4/5
f 525/4/5 521/4/5 524/4/5
f 530/2/5 527/2/5 526/2/5
f 531/2/5 527/2/5 530/2/5
f 532/2/5 529/2/5 528/2/5
f 533/2/5 529/2/5 532/2/5
f 538/3/5 535/3/5 534/3/5
f 539/3/5 535/3/5 538/3/5
f 540/3/5 537/3/5 536/3/5
f 541/3/5 537/3/5 540/3/5
f 542/2/6 543/2/6 544/2/6
f 544/2/6 543/2/6 545/2/6
f 546/4/6 547/4/6 551/4/6
f 551/4/6 547/4/6 552/4/6
f 548/2/6 549/2/6 553/2/6
f 549/4/6 550/4/6 554/4/6
f 553/2/6 549/2/6 554/2/6
f 554/4/6 550/4/6 555/4/6
f 556/2/6 557/2/6 560/2/6
f 560/2/6 557/2/6 561/2/6
f 558/2/6 559/2/6 566/2/6
f 566/2/6 559/2/6 567/2/6
f 562/4/6 563/4/6 568/4/6
f 568/4/6 563/4/6 569/4/6
f 564/4/6 565/4/6 570/4/6
f 570/4/6 565/4/6 571/4/6
f 572/4/6 573/4/6 576/4/6
f 576/4/6 573/4/6 577/4/6
f 574/4/6 575/4/6 578/4/6
f 578/4/6 575/4/6 579/4/6
f 580/4/6 581/4/6 584/4/6
f 584/4/6 581/4/6 585/4/6
f 582/4/6 583/4/6 587/4/6
f 585/4/6 586/4/6 590/4/6
f 587/4/6 588/4/6 591/4/6
f 582/4/6 587/4/6 591/4/6
f 591/4/6 588/4/6 592/4/6
f 592/4/6 588/4/6 593/4/6
f 589/4/6 590/4/6 594/4/6
f 590/4/6 586/4/6 595/4/6
f 594/4/6 590/4/6 595/4/6
f 591/2/6 592/2/6 597/2/6
f 597/2/6 592/2/6 598/2/6
f 596/4/6 597/4/6 604/4/6
f 604/4/6 597/4/6 605/4/6
f 598/2/6 599/2/6 606/2/6
f 606/2/6 599/2/6 607/2/6
f 600/2/6 601/2/6 610/2/6
f 610/2/6 601/2/6 611/2/6
f 602/4/6 603/4/6 612/4/6
f 612/4/6 603/4/6 613/4/6
f 605/4/6 606/4/6 614/4/6
f 606/4/6 607/4/6 614/4/6
f 607/2/6 608/2/6 615/2/6
f 614/4/6 607/4/6 615/4/6
f 610/4/6 611/4/6 616/4/6
f 611/4/6 612/4/6 616/4/6
f 609/2/6 610/2/6 616/2/6
f 616/4/6 612/4/6 617/4/6
f 614/2/6 615/2/6 618/2/6
f 615/2/6 608/2/6 619/2/6
f 618/2/6 615/2/6 619/2/6
f 609/2/6 616/2/6 620/2/6
f 616/2/6 617/2/6 620/2/6
f 620/2/6 617/2/6 621/2/6
f 619/2/6 608/2/6 623/2/6
f 623/2/6 608/2/6 624/2/6
f 609/2/6 620/2/6 625/2/6
f 625/2/6 620/2/6 626/2/6
f 622/4/6 623/4/6 628/4/6
f 628/4/6 623/4/6 629/4/6
f 626/4/6 627/4/6 630/4/6
f 630/4/6 627/4/6 631/4/6
f 632/2/6 633/2/6 636/2/6
f 636/2/6 633/2/6 637/2/6
f 634/2/6 635/2/6 638/2/6
f 638/2/6 635/2/6 639/2/6
f 636/4/6 637/4/6 640/4/6
f 637/4/6 638/4/6 640/4/6
f 638/4/6 639/4/6 640/4/6
f 640/4/6 639/4/6 641/4/6
f 642/3/6 643/3/6 646/3/6
f 646/3/6 643/3/6 647/3/6
f 644/3/6 645/3/6 648/3/6
f 648/3/6 645/3/6 649/3/6
